<?xml version="1.0" encoding="UTF-8"?>
<svg width="800" height="600" viewBox="0 0 800 600" fill="none" xmlns="http://www.w3.org/2000/svg">
  <!-- Background -->
  <rect width="800" height="600" rx="20" fill="#1E1E2E"/>
  
  <!-- Code Editor Window -->
  <rect x="50" y="50" width="700" height="500" rx="10" fill="#282A36"/>
  
  <!-- Window Controls -->
  <circle cx="85" cy="85" r="8" fill="#FF5F56"/>
  <circle cx="115" cy="85" r="8" fill="#FFBD2E"/>
  <circle cx="145" cy="85" r="8" fill="#27C93F"/>
  
  <!-- Code Lines -->
  <rect x="80" y="130" width="200" height="12" rx="2" fill="#BD93F9" opacity="0.7"/>
  <rect x="80" y="160" width="400" height="12" rx="2" fill="#50FA7B" opacity="0.7"/>
  <rect x="80" y="190" width="300" height="12" rx="2" fill="#FFB86C" opacity="0.7"/>
  <rect x="80" y="220" width="350" height="12" rx="2" fill="#FF79C6" opacity="0.7"/>
  
  <rect x="80" y="270" width="250" height="12" rx="2" fill="#8BE9FD" opacity="0.7"/>
  <rect x="80" y="300" width="420" height="12" rx="2" fill="#50FA7B" opacity="0.7"/>
  <rect x="80" y="330" width="280" height="12" rx="2" fill="#BD93F9" opacity="0.7"/>
  
  <rect x="80" y="380" width="320" height="12" rx="2" fill="#FF79C6" opacity="0.7"/>
  <rect x="80" y="410" width="380" height="12" rx="2" fill="#FFB86C" opacity="0.7"/>
  <rect x="80" y="440" width="290" height="12" rx="2" fill="#8BE9FD" opacity="0.7"/>
  
  <!-- Glow Effects -->
  <rect x="50" y="50" width="700" height="500" rx="10" stroke="#6272A4" stroke-width="2"/>
  <rect x="50" y="50" width="700" height="500" rx="10" stroke="#BD93F9" stroke-width="1" opacity="0.3"/>
  
  <!-- Decorative Elements -->
  <circle cx="700" cy="500" r="30" fill="#BD93F9" opacity="0.1"/>
  <circle cx="680" cy="480" r="40" fill="#50FA7B" opacity="0.1"/>
  <circle cx="720" cy="520" r="20" fill="#FF79C6" opacity="0.1"/>
</svg>